<svg width="604" height="148" viewBox="0 0 604 148" fill="none" xmlns="http://www.w3.org/2000/svg">
<rect width="148" height="148" rx="28" fill="white"/>
<path fill-rule="evenodd" clip-rule="evenodd" d="M28 0C12.536 0 0 12.536 0 28V57.8974C2.72458 58.6547 5.59349 59.6913 8.31109 61.1098C11.9828 63.0264 16.0926 66.8881 20.4234 70.9575C27.589 77.6906 35.3596 84.9922 42.7522 84.9922C54.6126 84.9922 61.6382 78.5089 72.3574 64.7168C74.1758 62.3771 75.7867 60.2461 77.247 58.3143C85.3886 47.5441 88.8482 42.9677 97.4653 42.9677C107.628 42.9677 116.595 46.6809 124.367 61.1098C125.089 62.4516 125.775 63.7361 126.433 64.9674C133.469 78.1408 137.261 85.2396 148 91.5786V28C148 12.536 135.464 0 120 0H28ZM148 96.2814C142.487 94.6473 136.025 91.3751 129.149 84.9922C125.923 81.9977 123.241 79.3464 120.897 77.0307C112.472 68.7037 108.437 64.7168 99.3359 64.7168C88.7767 64.7168 83.0389 71.807 74.9158 81.8446C74.0901 82.8648 73.2399 83.9155 72.3574 84.9922C70.7892 86.9057 69.3655 88.7305 68.0286 90.4441C61.2114 99.1824 56.6475 105.032 46.6517 105.032C36.5038 105.032 32.8157 99.7811 25.7183 89.6756C24.4537 87.875 23.0808 85.9202 21.5438 83.8135C14.729 74.4729 6.64642 67.729 0 63.2069V120C0 135.464 12.536 148 28 148H120C135.464 148 148 135.464 148 120V96.2814Z" fill="url(#paint0_linear_69_237)"/>
<path d="M243.43 94.4396C273.431 94.4396 292.117 79.2802 292.117 52.7088C292.117 26.1374 273.431 12 243.43 12H198V134.297H224.058V94.4396H243.43ZM243.258 33.8022C258.002 33.8022 266.231 40.7857 266.231 52.8791C266.231 64.9725 258.002 72.6374 243.258 72.6374H224.058V33.8022H243.258Z" fill="#1A212D"/>
<path d="M356.635 95.9725C356.635 108.236 348.406 115.049 339.834 115.049C330.234 115.049 323.891 109.429 323.891 96.6538V43.3407H300.062V101.253C300.062 124.929 313.434 136 331.777 136C343.434 136 353.549 130.379 358.521 122.374V134.297H380.293V43.3407H356.635V95.9725Z" fill="#1A212D"/>
<path d="M418.846 134.297V12H394.846V134.297H418.846Z" fill="#1A212D"/>
<path d="M510.674 105.17C510.674 92.0549 501.589 83.8791 483.759 80.4725L466.102 77.2363C457.873 75.7033 454.101 73.489 454.101 68.0385C454.101 62.2473 459.93 59.011 468.673 59.011C478.788 59.011 485.474 64.4615 486.331 73.3187H509.132C507.417 53.7308 491.645 41.6374 468.673 41.6374C445.873 41.6374 431.301 53.3901 431.301 70.2528C431.301 84.3901 441.244 93.4176 457.702 96.3132L474.159 99.3791C482.902 101.082 486.674 103.467 486.674 109.258C486.674 115.731 479.645 118.626 470.388 118.626C458.559 118.626 450.501 112.665 450.33 103.297H427.529C429.415 123.566 443.987 136 470.045 136C496.103 136 510.674 124.247 510.674 105.17Z" fill="#1A212D"/>
<path d="M559.858 135.83C582.145 135.83 598.088 124.077 603.231 103.467H579.573C576.83 112.495 569.802 117.604 559.344 117.604C547.172 117.604 539.972 109.429 538.429 94.6099H603.403C607.688 64.9725 588.488 41.6374 559.516 41.6374C533.115 41.6374 514.086 61.3956 514.086 88.478C514.086 116.923 532.429 135.83 559.858 135.83ZM559.001 59.011C570.316 59.011 577.516 67.0165 578.202 79.6209H538.772C540.829 66.1648 547.858 59.011 559.001 59.011Z" fill="#1A212D"/>
<defs>
<linearGradient id="paint0_linear_69_237" x1="74" y1="0" x2="74" y2="148" gradientUnits="userSpaceOnUse">
<stop stop-color="#F5A66C"/>
<stop offset="1" stop-color="#ED5252"/>
</linearGradient>
</defs>
</svg>
